<svg width="219" height="250" viewBox="0 0 219 250" fill="none" xmlns="http://www.w3.org/2000/svg">
<path d="M211.5 112.01C221.5 117.783 221.5 132.217 211.5 137.99L22.5 247.11C12.5 252.883 0 245.666 0 234.119L0 15.8808C0 4.33379 12.5 -2.88307 22.5 2.89043L211.5 112.01Z" fill="#4361EE"/>
<path d="M16.2861 61.2666L18.7275 40.5147H75.4902C95.1029 40.5147 109.426 41.6947 118.459 44.0547C127.329 46.4961 133.677 49.3851 137.502 52.7217C146.047 60.0459 150.319 71.3171 150.319 86.5352C150.319 97.847 144.216 108.589 132.009 118.762C147.552 126.574 155.324 141.141 155.324 162.463C155.324 179.146 149.831 191.556 138.845 199.694C127.94 207.751 111.664 212.186 90.0166 213H18.7275L16.2861 192.248C18.4834 189.4 23.0814 186.633 30.0801 183.947V69.6895C23.1628 67.2481 18.5648 64.4404 16.2861 61.2666ZM79.0303 67.7363H66.0908V110.949H86.4766C95.0215 110.949 101.532 108.793 106.008 104.479C110.565 100.166 112.844 94.8766 112.844 88.6104C112.844 82.3441 111.257 77.624 108.083 74.4502C104.909 71.2764 101.206 69.3639 96.9746 68.7129C92.8242 68.0619 86.8428 67.7363 79.0303 67.7363ZM88.3076 138.293H66.0908V185.778H83.3027C94.6146 185.778 103.16 184.11 108.938 180.773C114.797 177.355 117.727 171.333 117.727 162.707C117.727 153.999 115.448 147.774 110.891 144.03C106.333 140.205 98.8057 138.293 88.3076 138.293Z" fill="white"/>
</svg>
